# xmcd CD database file
# Copyright (C) 1996 Ti Kan
#
# Track frame offsets:
#	150
#	11150
#	25005
#	38267
#	47730
#	71337
#	84592
#	100292
#	117032
#	131630
#	142500
#	158475
#	168382
#	177000
#	193387
#
# Disc length: 2759 seconds
#
# Revision: 1
# Processed by: cddbd v1.4b41PL1 Copyright (c) Steve Scherf et al.
# Submitted via: EasyCD 2.21 - (C) 1996 Greg Leichner
#
DISCID=b20ac50f
DTITLE=The Windy City Strugglers - The Windy City Strugglers
DYEAR=1900
DGENRE=
TTITLE0=Someday Baby
TTITLE1=Born In The Desert
TTITLE2=Peaches In The Springtime
TTITLE3=Raggy Blues
TTITLE4=Newport News
TTITLE5=Heartland
TTITLE6=Lonesome Train
TTITLE7=Minglewood Blues
TTITLE8=Mellow Apples
TTITLE9=I Sing 'Em The Way I Feel
TTITLE10=My Fault
TTITLE11=Jesus Hits Like An Atom Bomb
TTITLE12=Heavenly Light
TTITLE13=Rollin' And Tumblin'
TTITLE14=Bring It On Home To Me
EXTD=
EXTT0=
EXTT1=
EXTT2=
EXTT3=
EXTT4=
EXTT5=
EXTT6=
EXTT7=
EXTT8=
EXTT9=
EXTT10=
EXTT11=
EXTT12=
EXTT13=
EXTT14=
PLAYORDER=
